<svg xmlns="http://www.w3.org/2000/svg" width="43.891" height="34.481" viewBox="0 0 43.891 34.481">
  <g id="volume" transform="translate(0)">
    <path id="Path_446" data-name="Path 446" d="M8.152,64.405H0V79.848H8.152l14.014,9.519L24.174,88.3V55.95l-2.008-1.064Zm-.89,12.871H2.572v-10.3h4.69Zm14.341,8.6L9.833,77.881V66.372L21.6,58.378Z" transform="translate(0 -54.886)" fill="#59bcef"/>
    <path id="Path_447" data-name="Path 447" d="M330.526,221.538a1.827,1.827,0,0,1,0,2.583l1.818,1.818a4.4,4.4,0,0,0,0-6.22Z" transform="translate(-302.192 -205.59)" fill="#59bcef"/>
    <path id="Path_448" data-name="Path 448" d="M383.671,168.358l-1.818,1.818a8.052,8.052,0,0,1,0,11.389l1.818,1.819a10.623,10.623,0,0,0,0-15.026Z" transform="translate(-349.116 -158.631)" fill="#59bcef"/>
    <path id="Path_449" data-name="Path 449" d="M435.018,117.027l-1.819,1.818a14.277,14.277,0,0,1,0,20.19l1.818,1.819a16.848,16.848,0,0,0,.005-23.827Z" transform="translate(-396.06 -111.7)" fill="#59bcef"/>
  </g>
</svg>
