<svg xmlns="http://www.w3.org/2000/svg" width="133" height="95.06" viewBox="0 0 133 95.06">
  <g id="car" transform="translate(0 -73.028)">
    <path id="Path_469" data-name="Path 469" d="M127.244,100.405h-8.332c-1.4-13.045-8.865-27.377-21.674-27.377H33.713c-6.345,0-12.128,3.757-16.284,10.578a40.913,40.913,0,0,0-5.39,16.8H5.757A5.763,5.763,0,0,0,0,106.162v6.7a5.763,5.763,0,0,0,5.757,5.757h1.4a20.439,20.439,0,0,0-1.919,8.66V143.8a5.092,5.092,0,0,0-2.282,4.244v3.54a5.1,5.1,0,0,0,4.714,5.076v5.621a5.811,5.811,0,0,0,5.8,5.8H30.542a5.811,5.811,0,0,0,5.8-5.8v-5.6H49.8a5.068,5.068,0,0,0,3.356,1.271H77.8a5.067,5.067,0,0,0,3.356-1.271H94.6v5.6a5.811,5.811,0,0,0,5.8,5.8h17.066a5.811,5.811,0,0,0,5.8-5.8v-5.621a5.1,5.1,0,0,0,4.714-5.076v-3.54a5.093,5.093,0,0,0-2.282-4.244v-6.518a1.948,1.948,0,0,0-3.9,0v5.666H81.155a5.117,5.117,0,0,0-3.356-1.271H53.151a5.123,5.123,0,0,0-3.356,1.271H9.136V127.28a16.733,16.733,0,0,1,16.671-16.671h8.3l7.671,12.514A11.949,11.949,0,0,0,51.9,128.791H79.049a11.95,11.95,0,0,0,10.123-5.668l7.67-12.514h8.3a16.732,16.732,0,0,1,16.671,16.671v.914a1.948,1.948,0,0,0,3.9,0,21.106,21.106,0,0,0-1.919-9.574h3.45A5.763,5.763,0,0,0,133,112.863v-6.7A5.763,5.763,0,0,0,127.244,100.405ZM5.757,114.724a1.862,1.862,0,0,1-1.86-1.86v-6.7a1.862,1.862,0,0,1,1.86-1.86h6.015c-.014.474-.022.95-.022,1.427v6.557a20.727,20.727,0,0,0-2.216,2.438ZM32.45,162.283a1.91,1.91,0,0,1-1.908,1.908H13.477a1.91,1.91,0,0,1-1.908-1.908v-5.6H32.45Zm86.932,0a1.91,1.91,0,0,1-1.908,1.908H100.409a1.911,1.911,0,0,1-1.908-1.908v-5.6h20.882Zm3.516-15.434a1.137,1.137,0,0,1,.2.021l.081.018a1.215,1.215,0,0,1,.917,1.16v3.54a1.214,1.214,0,0,1-1.2,1.2h-40v-5.936Zm-45.1-1.271a1.219,1.219,0,0,1,1.2,1.2v6.082a1.221,1.221,0,0,1-1.2,1.2H53.151a1.22,1.22,0,0,1-1.2-1.2v-6.082a1.218,1.218,0,0,1,1.2-1.2H77.8Zm-29.743,1.271v5.936h-40a1.214,1.214,0,0,1-1.2-1.2v-3.54a1.215,1.215,0,0,1,.916-1.159c.028-.007.055-.013.083-.018a1.133,1.133,0,0,1,.2-.021h40ZM22.2,107.032v-1.3c0-6.362,1.475-12.288,4.153-16.685,2.186-3.588,4.8-5.564,7.357-5.564H61.954a1.948,1.948,0,1,0,0-3.9H33.713c-3.97,0-7.765,2.64-10.685,7.433-3.045,5-4.722,11.645-4.722,18.712v2.406a20.457,20.457,0,0,0-2.659,1.273v-3.679c0-6.853,1.542-14.237,5.11-20.1,3.421-5.616,8.023-8.709,12.956-8.709H97.238c4.933,0,9.535,3.093,12.956,8.708,3.555,5.837,5.11,13.179,5.11,20.1v3.68a20.471,20.471,0,0,0-2.659-1.273v-2.406c0-7.068-1.677-13.713-4.722-18.712-2.92-4.793-6.715-7.433-10.685-7.433H71.046a1.948,1.948,0,0,0,0,3.9H97.239c2.559,0,5.172,1.976,7.357,5.563,2.678,4.4,4.153,10.323,4.153,16.686v1.3a21.224,21.224,0,0,0-3.448-.317,16.385,16.385,0,0,0-32.77,0H25.807a21.426,21.426,0,0,0-3.6.319Zm63.647,14.055a8.027,8.027,0,0,1-6.8,3.808H51.9a8.027,8.027,0,0,1-6.8-3.808l-6.422-10.477H92.272ZM82.9,106.713a6.02,6.02,0,0,1,12.04,0Zm15.937,0a9.917,9.917,0,0,0-19.834,0H76.427a12.489,12.489,0,0,1,24.979,0Zm30.27,6.151a1.862,1.862,0,0,1-1.86,1.86h-5.827a20.747,20.747,0,0,0-2.216-2.437v-6.557c0-.473-.007-.949-.021-1.427h8.063a1.862,1.862,0,0,1,1.86,1.86v6.7Z" fill="#88c6e8"/>
    <path id="Path_470" data-name="Path 470" d="M187.2,300.85a1.948,1.948,0,0,0,0,3.9H218.01a1.948,1.948,0,0,0,0-3.9Z" transform="translate(-137.129 -168.642)" fill="#88c6e8"/>
    <path id="Path_471" data-name="Path 471" d="M384.663,245.381a9.542,9.542,0,1,0,9.542,9.542A9.553,9.553,0,0,0,384.663,245.381Zm0,15.189a5.646,5.646,0,1,1,5.646-5.646A5.652,5.652,0,0,1,384.663,260.569Z" transform="translate(-277.677 -127.582)" fill="#88c6e8"/>
    <path id="Path_472" data-name="Path 472" d="M55.521,254.923a9.542,9.542,0,1,0,9.542-9.542,9.553,9.553,0,0,0-9.542,9.542Zm15.188,0a5.646,5.646,0,1,1-5.646-5.646A5.652,5.652,0,0,1,70.709,254.923Z" transform="translate(-41.099 -127.582)" fill="#88c6e8"/>
  </g>
</svg>
