<svg xmlns="http://www.w3.org/2000/svg" width="149.625" height="152.828" viewBox="0 0 149.625 152.828">
  <g id="Group_227" data-name="Group 227" transform="translate(-684.193 -1627.187)">
    <path id="Path_395" data-name="Path 395" d="M62.914,9.29V5A57.979,57.979,0,0,0,5,62.914H9.29A53.685,53.685,0,0,1,62.914,9.29Z" transform="translate(704.409 1650.606)" fill="#59bcef"/>
    <path id="Path_396" data-name="Path 396" d="M5,34H9.29v4.29H5Z" transform="translate(704.409 1683.811)" fill="#59bcef"/>
    <path id="Path_397" data-name="Path 397" d="M5.29,67.494A62.21,62.21,0,0,1,128.838,57.125l4.232-.71A66.5,66.5,0,1,0,54.2,132.658l.854-4.2A62.371,62.371,0,0,1,5.29,67.494Z" transform="translate(699.829 1646.026)" fill="#59bcef"/>
    <path id="Path_398" data-name="Path 398" d="M114.372,96.914a29.733,29.733,0,0,1,0-32.985l1.566-2.351A12.023,12.023,0,0,0,99.267,44.9l-1.459.972a33.215,33.215,0,0,1-9.936,4.462A36.445,36.445,0,1,0,48.382,87.773a29.579,29.579,0,0,1-4.056,9.142L42.76,99.265A12.023,12.023,0,0,0,59.431,115.94l1.459-.972a33.344,33.344,0,0,1,7.733-3.79v6.78h4.29v-8.58a2.148,2.148,0,0,0-.955-1.785L60.044,99.651V92.219a2.145,2.145,0,1,1,4.29,0v6.435h4.29V70.769a2.145,2.145,0,0,1,4.29,0V85.784H77.2v-19.3a2.145,2.145,0,0,1,4.29,0v19.3h4.29V70.769a2.145,2.145,0,1,1,4.29,0V85.784h4.29V79.349a2.145,2.145,0,0,1,4.29,0v22.707l-3.661,3.661a2.139,2.139,0,0,0-.628,1.517v10.725h4.29v-2.428l.611.408A12.023,12.023,0,0,0,115.94,99.267ZM82.627,43.6,65.986,36.943,59.33,20.3A32.232,32.232,0,0,1,82.627,43.6ZM54.36,19.436l7.981,19.955a2.148,2.148,0,0,0,1.2,1.195l19.955,7.981c.077.86.124,1.729.133,2.606a33.392,33.392,0,0,1-4.277.292,33.172,33.172,0,0,1-18.458-5.588l-1.459-.972A12.023,12.023,0,0,0,42.758,61.576l1.566,2.351a29.25,29.25,0,0,1,4.815,19.594c-.189-.013-.382-.013-.571-.028L40.587,63.539a2.147,2.147,0,0,0-1.2-1.195L19.436,54.362c-.086-.957-.146-1.92-.146-2.9s.06-1.941.146-2.9L39.39,40.587a2.148,2.148,0,0,0,1.2-1.195l7.981-19.955c.955-.088,1.918-.148,2.9-.148s1.941.06,2.9.146ZM43.6,20.3,36.943,36.943,20.3,43.6A32.231,32.231,0,0,1,43.6,20.3ZM20.3,59.328l16.641,6.658L43.6,82.627A32.232,32.232,0,0,1,20.3,59.328Zm85.634,54.341a7.716,7.716,0,0,1-4.29-1.3l-1.459-.972c-.5-.332-1.021-.626-1.534-.933v-2.342l3.661-3.661a2.148,2.148,0,0,0,.628-1.519V79.349a6.443,6.443,0,0,0-6.435-6.435,6.362,6.362,0,0,0-2.145.395v-2.54a6.414,6.414,0,0,0-8.829-5.963,6.4,6.4,0,0,0-12.372,0,6.414,6.414,0,0,0-8.829,5.963V86.179a6.362,6.362,0,0,0-2.145-.395,6.443,6.443,0,0,0-6.435,6.435v8.58a2.148,2.148,0,0,0,.955,1.785l8.157,5.438a37.591,37.591,0,0,0-6.356,3.376l-1.459.972a7.733,7.733,0,0,1-10.725-10.723L47.893,99.3a34.021,34.021,0,0,0,0-37.747L46.329,59.2A7.733,7.733,0,0,1,57.052,48.472l1.459.972a37.567,37.567,0,0,0,41.677,0l1.459-.972A7.733,7.733,0,0,1,112.371,59.2l-1.566,2.351a34.021,34.021,0,0,0,0,37.747l1.566,2.351a7.734,7.734,0,0,1-6.433,12.023Z" transform="translate(715.859 1662.056)" fill="#59bcef"/>
    <path id="Path_430" data-name="Path 430" d="M10.709,29.418A1.617,1.617,0,0,0,12.327,27.8,6.479,6.479,0,0,1,18.8,21.327a1.618,1.618,0,1,0,0-3.236,6.479,6.479,0,0,1-6.473-6.473,1.618,1.618,0,0,0-3.236,0,6.479,6.479,0,0,1-6.473,6.473,1.618,1.618,0,1,0,0,3.236A6.479,6.479,0,0,1,9.091,27.8,1.617,1.617,0,0,0,10.709,29.418Zm0-12.439a9.788,9.788,0,0,0,2.73,2.73,9.788,9.788,0,0,0-2.73,2.73,9.788,9.788,0,0,0-2.73-2.73A9.788,9.788,0,0,0,10.709,16.979Z" transform="translate(683.193 1637.187)" fill="#59bcef"/>
    <path id="Path_431" data-name="Path 431" d="M10.709,29.418A1.617,1.617,0,0,0,12.327,27.8,6.479,6.479,0,0,1,18.8,21.327a1.618,1.618,0,1,0,0-3.236,6.479,6.479,0,0,1-6.473-6.473,1.618,1.618,0,0,0-3.236,0,6.479,6.479,0,0,1-6.473,6.473,1.618,1.618,0,1,0,0,3.236A6.479,6.479,0,0,1,9.091,27.8,1.617,1.617,0,0,0,10.709,29.418Zm0-12.439a9.788,9.788,0,0,0,2.73,2.73,9.788,9.788,0,0,0-2.73,2.73,9.788,9.788,0,0,0-2.73-2.73A9.788,9.788,0,0,0,10.709,16.979Z" transform="translate(711.193 1617.187)" fill="#59bcef"/>
  </g>
</svg>
