<svg id="surface1" xmlns="http://www.w3.org/2000/svg" width="48" height="48" viewBox="0 0 48 48">
  <path id="Path_443" data-name="Path 443" d="M47.944,13.023l0-.037c-.025-.461-.041-.949-.051-1.492-.046-2.647-2.517-4.836-5.625-4.984C35.786,6.2,30.772,4.4,26.489.847l-.037-.03a4.081,4.081,0,0,0-4.9,0l-.037.03C17.229,4.4,12.216,6.2,5.735,6.51,2.627,6.658.156,8.847.11,11.494.1,12.033.084,12.521.059,12.985l0,.087C-.07,18.7-.226,25.7,2.525,32.06a24.129,24.129,0,0,0,6.81,9.033,37.316,37.316,0,0,0,13.326,6.712,4.723,4.723,0,0,0,2.68,0,37.33,37.33,0,0,0,13.312-6.716,24.163,24.163,0,0,0,6.81-9.035C48.226,25.678,48.07,18.661,47.944,13.023ZM42.361,31.079c-2.9,6.7-8.826,11.3-18.11,14.066a.969.969,0,0,1-.1.024.87.87,0,0,1-.291,0,.956.956,0,0,1-.1-.024c-9.294-2.76-15.222-7.359-18.122-14.059C3.093,25.227,3.237,18.8,3.364,13.126v-.031c.026-.487.043-1,.052-1.559a2.464,2.464,0,0,1,2.5-2.213,33.355,33.355,0,0,0,9.85-1.845A26.44,26.44,0,0,0,23.8,2.885a.346.346,0,0,1,.409,0,26.45,26.45,0,0,0,8.027,4.592,33.355,33.355,0,0,0,9.85,1.845,2.464,2.464,0,0,1,2.5,2.213c.01.564.027,1.074.053,1.559C44.764,18.773,44.9,25.207,42.361,31.079Zm0,0" transform="translate(0 0.001)" fill="#59bcef"/>
  <path id="Path_444" data-name="Path 444" d="M104.446,128.41a14.048,14.048,0,1,0,14.048,14.048A14.064,14.064,0,0,0,104.446,128.41Zm0,24.788a10.74,10.74,0,1,1,10.74-10.74A10.752,10.752,0,0,1,104.446,153.2Zm0,0" transform="translate(-80.446 -118.457)" fill="#59bcef"/>
  <path id="Path_445" data-name="Path 445" d="M164.792,212.476,158.267,219,156.5,217.23a1.654,1.654,0,0,0-2.339,2.339l2.941,2.941a1.654,1.654,0,0,0,2.339,0l7.694-7.694a1.654,1.654,0,1,0-2.339-2.339Zm0,0" transform="translate(-136.755 -192.957)" fill="#59bcef"/>
</svg>
