<svg id="_010-glass_cleaning" data-name="010-glass cleaning" xmlns="http://www.w3.org/2000/svg" width="132.988" height="132.988" viewBox="0 0 132.988 132.988">
  <path id="Path_388" data-name="Path 388" d="M52.572,78.348c.06.116-10.935-8.126-10.963-8.222L35.32,65.407V42.885a2.144,2.144,0,0,0-2.145-2.145H31.03V35.019l3.814-5.086,7.1,15.965,3.921-1.742L38.621,27.87h7.424a2.144,2.144,0,0,0,2.145-2.145v-8.58A2.144,2.144,0,0,0,46.044,15H20.3a2.148,2.148,0,0,0-1.785.955L9.94,28.824a2.145,2.145,0,0,0,1.785,3.335H18.16v8.58H16.015a2.144,2.144,0,0,0-2.145,2.145V65.829L1.36,84.594A2.157,2.157,0,0,0,1,85.784v30.03a2.143,2.143,0,0,0,2.145,2.145H58.914a2.143,2.143,0,0,0,2.145-2.145V85.784a2.147,2.147,0,0,0-.858-1.716Zm-6.527.33C45.092,77.245,47,77.245,46.044,78.678ZM20.3,27.87H15.732l5.721-8.58H43.9v4.29H35.32a2.147,2.147,0,0,0-1.716.858l-6.435,8.58A2.144,2.144,0,0,0,26.74,34.3V40.74H22.45V30.015A2.144,2.144,0,0,0,20.3,27.87ZM31.03,45.03v4.29H18.16V45.03Zm25.74,68.639H5.29V86.434L17.8,67.67a2.157,2.157,0,0,0,.36-1.19V53.61H31.03v12.87a2.147,2.147,0,0,0,.858,1.716l5.794,4.348c-.009-.074,11.8,8.736,11.769,8.824l7.319,5.489Z" transform="translate(-1 15.03)" fill="#59bcef"/>
  <path id="Path_389" data-name="Path 389" d="M28.595,57.725a8.589,8.589,0,0,1-8.58-8.58,2.145,2.145,0,1,0-4.29,0,8.589,8.589,0,0,1-8.58,8.58,2.145,2.145,0,1,0,0,4.29,8.589,8.589,0,0,1,8.58,8.58,2.145,2.145,0,1,0,4.29,0,8.589,8.589,0,0,1,8.58-8.58,2.145,2.145,0,1,0,0-4.29ZM17.87,63.488a12.975,12.975,0,0,0-3.619-3.619,13,13,0,0,0,3.619-3.619,13,13,0,0,0,3.619,3.619A12.974,12.974,0,0,0,17.87,63.488Z" transform="translate(3.58 51.669)" fill="#59bcef"/>
  <path id="Path_390" data-name="Path 390" d="M104.364,1H62.024A23.591,23.591,0,0,0,42.58,11.227L25.378,36.25A2.149,2.149,0,0,0,25,37.465V63.2a2.144,2.144,0,0,0,2.145,2.145h77.219a2.144,2.144,0,0,0,2.145-2.145V3.145A2.144,2.144,0,0,0,104.364,1Zm-2.145,60.059H29.29V38.132L46.115,13.66A19.3,19.3,0,0,1,62.024,5.29h40.195Z" transform="translate(26.479 -1)" fill="#59bcef"/>
  <path id="Path_391" data-name="Path 391" d="M43.426,13.6,31.36,31.7a2.143,2.143,0,0,0,1.785,3.333H88.914a2.144,2.144,0,0,0,2.145-2.145V7.145A2.144,2.144,0,0,0,88.914,5H59.487a19.262,19.262,0,0,0-16.062,8.6ZM59.487,9.29H86.769V30.74H37.152L47,15.976A14.984,14.984,0,0,1,59.487,9.29Z" transform="translate(33.349 3.58)" fill="#59bcef"/>
  <path id="Path_392" data-name="Path 392" d="M53,21H65.87v4.29H53Z" transform="translate(58.539 21.899)" fill="#59bcef"/>
  <path id="Path_393" data-name="Path 393" d="M0,0H12.134V4.29H0Z" transform="translate(84.271 26.373) rotate(-45)" fill="#59bcef"/>
  <path id="Path_394" data-name="Path 394" d="M0,0H12.134V4.29H0Z" transform="translate(94.996 26.375) rotate(-45)" fill="#59bcef"/>
  <path id="Path_436" data-name="Path 436" d="M28.595,57.725a8.589,8.589,0,0,1-8.58-8.58,2.145,2.145,0,1,0-4.29,0,8.589,8.589,0,0,1-8.58,8.58,2.145,2.145,0,1,0,0,4.29,8.589,8.589,0,0,1,8.58,8.58,2.145,2.145,0,1,0,4.29,0,8.589,8.589,0,0,1,8.58-8.58,2.145,2.145,0,1,0,0-4.29ZM17.87,63.488a12.975,12.975,0,0,0-3.619-3.619,13,13,0,0,0,3.619-3.619,13,13,0,0,0,3.619,3.619A12.974,12.974,0,0,0,17.87,63.488Z" transform="translate(27.58 29.669)" fill="#59bcef"/>
</svg>
