<svg xmlns="http://www.w3.org/2000/svg" width="38.135" height="44.945" viewBox="0 0 38.135 44.945">
  <g id="drop" transform="translate(0)">
    <g id="Group_224" data-name="Group 224" transform="translate(0 0)">
      <g id="Group_223" data-name="Group 223" transform="translate(0 0)">
        <path id="Path_437" data-name="Path 437" d="M65.192,4.955c-1.223-1.526-2.3-2.931-3.31-4.213a2.057,2.057,0,0,0-.576-.488,2.083,2.083,0,0,0-2.59.488c-.935,1.282-2.015,2.625-3.31,4.213-5.684,7.082-14.175,17.767-14.175,23.872a15.005,15.005,0,0,0,5.612,11.417,21.1,21.1,0,0,0,13.455,4.7,20.8,20.8,0,0,0,13.455-4.762,15.005,15.005,0,0,0,5.612-11.417C79.367,22.661,70.877,12.038,65.192,4.955Zm5.972,33.03A16.7,16.7,0,0,1,60.3,41.771a17.038,17.038,0,0,1-10.865-3.785,12.007,12.007,0,0,1-4.461-9.219c0-5.128,8.131-15.324,13.527-22.1.648-.794,1.223-1.587,1.8-2.259.576.672,1.151,1.465,1.8,2.259,5.4,6.838,13.527,16.973,13.527,22.1A12.242,12.242,0,0,1,71.165,37.985Z" transform="translate(-41.232 0)" fill="#59bcef"/>
      </g>
    </g>
    <g id="Group_226" data-name="Group 226" transform="translate(23.201 25.445)">
      <g id="Group_225" data-name="Group 225" transform="translate(0)">
        <path id="Path_438" data-name="Path 438" d="M174.152,181.244a1.706,1.706,0,0,0-1.8,1.6,8.565,8.565,0,0,1-1.264,4.059,8.086,8.086,0,0,1-3.061,2.928,1.758,1.758,0,0,0,1.73,3.061,11.529,11.529,0,0,0,4.258-4.125,11.323,11.323,0,0,0,1.73-5.722A1.706,1.706,0,0,0,174.152,181.244Z" transform="translate(-167.152 -181.24)" fill="#59bcef"/>
      </g>
    </g>
  </g>
</svg>
