<svg id="sun_1_" data-name="sun (1)" xmlns="http://www.w3.org/2000/svg" width="48" height="48" viewBox="0 0 48 48">
  <path id="Path_450" data-name="Path 450" d="M118.768,104.57a14.2,14.2,0,1,0,14.2,14.2A14.213,14.213,0,0,0,118.768,104.57Zm0,25.583a11.385,11.385,0,1,1,11.385-11.385A11.4,11.4,0,0,1,118.768,130.153Z" transform="translate(-94.768 -94.767)" fill="#59bcef"/>
  <path id="Path_451" data-name="Path 451" d="M319.65,25.575a1.4,1.4,0,0,0,1.844-.744l1.552-3.65a1.406,1.406,0,0,0-2.588-1.1l-1.552,3.65A1.406,1.406,0,0,0,319.65,25.575Z" transform="translate(-288.91 -17.423)" fill="#59bcef"/>
  <path id="Path_452" data-name="Path 452" d="M150.192,423.986a1.406,1.406,0,0,0-1.844.744l-1.553,3.65a1.406,1.406,0,1,0,2.588,1.1l1.553-3.65A1.406,1.406,0,0,0,150.192,423.986Z" transform="translate(-132.932 -384.139)" fill="#59bcef"/>
  <path id="Path_453" data-name="Path 453" d="M20.081,149.382l3.65,1.553a1.406,1.406,0,1,0,1.1-2.588l-3.65-1.553a1.406,1.406,0,0,0-1.1,2.588Z" transform="translate(-17.423 -132.931)" fill="#59bcef"/>
  <path id="Path_454" data-name="Path 454" d="M429.482,320.459l-3.65-1.553a1.406,1.406,0,1,0-1.1,2.588l3.65,1.553a1.406,1.406,0,1,0,1.1-2.588Z" transform="translate(-384.14 -288.91)" fill="#59bcef"/>
  <path id="Path_455" data-name="Path 455" d="M152.479,23.09a1.406,1.406,0,1,0,2.608-1.052L153.6,18.36A1.406,1.406,0,1,0,151,19.411Z" transform="translate(-136.749 -15.84)" fill="#59bcef"/>
  <path id="Path_456" data-name="Path 456" d="M318.032,426.193a1.406,1.406,0,0,0-2.608,1.052l1.483,3.679a1.406,1.406,0,1,0,2.608-1.052Z" transform="translate(-285.762 -385.442)" fill="#59bcef"/>
  <path id="Path_457" data-name="Path 457" d="M23.869,316.2a1.406,1.406,0,0,0-1.83-.778l-3.679,1.483a1.406,1.406,0,1,0,1.052,2.608l3.679-1.483A1.406,1.406,0,0,0,23.869,316.2Z" transform="translate(-15.841 -285.762)" fill="#59bcef"/>
  <path id="Path_458" data-name="Path 458" d="M425.414,154.308a1.4,1.4,0,0,0,1.83.778l3.679-1.483a1.406,1.406,0,1,0-1.052-2.608l-3.679,1.483A1.406,1.406,0,0,0,425.414,154.308Z" transform="translate(-385.442 -136.747)" fill="#59bcef"/>
  <path id="Path_459" data-name="Path 459" d="M242.429,6.779a1.406,1.406,0,0,0,1.406-1.406V1.406a1.406,1.406,0,0,0-2.812,0V5.373A1.406,1.406,0,0,0,242.429,6.779Z" transform="translate(-218.429)" fill="#59bcef"/>
  <path id="Path_460" data-name="Path 460" d="M242.429,439.73a1.406,1.406,0,0,0-1.406,1.406V445.1a1.406,1.406,0,0,0,2.812,0v-3.967A1.406,1.406,0,0,0,242.429,439.73Z" transform="translate(-218.429 -398.509)" fill="#59bcef"/>
  <path id="Path_461" data-name="Path 461" d="M6.779,242.428a1.406,1.406,0,0,0-1.406-1.406H1.406a1.406,1.406,0,0,0,0,2.812H5.373A1.406,1.406,0,0,0,6.779,242.428Z" transform="translate(0 -218.428)" fill="#59bcef"/>
  <path id="Path_462" data-name="Path 462" d="M445.1,241.023h-3.967a1.406,1.406,0,1,0,0,2.812H445.1a1.406,1.406,0,0,0,0-2.812Z" transform="translate(-398.51 -218.429)" fill="#59bcef"/>
  <path id="Path_463" data-name="Path 463" d="M73.81,75.8A1.406,1.406,0,0,0,75.8,73.81l-2.8-2.8a1.406,1.406,0,0,0-1.989,1.989Z" transform="translate(-63.976 -63.976)" fill="#59bcef"/>
  <path id="Path_464" data-name="Path 464" d="M383.931,381.942a1.406,1.406,0,1,0-1.989,1.989l2.8,2.8a1.406,1.406,0,0,0,1.988-1.989Z" transform="translate(-345.765 -345.765)" fill="#59bcef"/>
  <path id="Path_465" data-name="Path 465" d="M73.81,381.942l-2.8,2.8a1.406,1.406,0,0,0,1.988,1.989l2.8-2.8a1.406,1.406,0,0,0-1.988-1.989Z" transform="translate(-63.976 -345.764)" fill="#59bcef"/>
  <path id="Path_466" data-name="Path 466" d="M382.937,76.211a1.4,1.4,0,0,0,.994-.412l2.8-2.8a1.406,1.406,0,0,0-1.989-1.989l-2.8,2.8a1.406,1.406,0,0,0,.994,2.4Z" transform="translate(-345.765 -63.976)" fill="#59bcef"/>
</svg>
