<svg id="_021-seat" data-name="021-seat" xmlns="http://www.w3.org/2000/svg" width="132.988" height="132.988" viewBox="0 0 132.988 132.988">
  <path id="Path_385" data-name="Path 385" d="M113.07,95.8a26.816,26.816,0,0,0,3.081-12.447,80.728,80.728,0,0,0-2.3-19.092l-5.042-20.673A11,11,0,0,0,97.993,35.32H96.086a11.206,11.206,0,0,0-8.834-4.29H80.583V26.74h2.223A6.563,6.563,0,0,0,89.475,20.3V7.435A6.563,6.563,0,0,0,82.806,1H47.237a6.563,6.563,0,0,0-6.669,6.435V20.3a6.563,6.563,0,0,0,6.669,6.435H49.46v4.29H42.791a11.2,11.2,0,0,0-8.834,4.29H32.05A11,11,0,0,0,21.23,43.586L16.188,64.262a80.732,80.732,0,0,0-2.3,19.095A26.809,26.809,0,0,0,16.973,95.8,15.686,15.686,0,0,0,5,110.934v5.547a16.933,16.933,0,0,0,.931,5.536,18.08,18.08,0,0,0,17.213,11.971H106.9a18.082,18.082,0,0,0,17.215-11.973,16.967,16.967,0,0,0,.929-5.534v-5.547A15.686,15.686,0,0,0,113.07,95.8ZM45.014,20.3V7.435A2.186,2.186,0,0,1,47.237,5.29H82.806a2.186,2.186,0,0,1,2.223,2.145V20.3a2.186,2.186,0,0,1-2.223,2.145H47.237A2.186,2.186,0,0,1,45.014,20.3Zm8.892,6.435h22.23v4.29H53.906Zm-33.39,38.5,5.042-20.675A6.586,6.586,0,0,1,31.9,39.62a10.417,10.417,0,0,0-.222,2.134V52.479h4.446V41.755a6.563,6.563,0,0,1,6.669-6.435h44.46a6.563,6.563,0,0,1,6.669,6.435V52.479h4.446V41.755a10.229,10.229,0,0,0-.225-2.132,6.584,6.584,0,0,1,6.34,4.951l5.042,20.675A76.54,76.54,0,0,1,111.7,83.356a22.694,22.694,0,0,1-3.5,12.083,15.723,15.723,0,0,0-9.557,4.178,14.681,14.681,0,0,0-4.615,9.039,36.5,36.5,0,0,0-7.158-3.067,150.969,150.969,0,0,1-1.841-23.258V39.61H80.583V82.331a154.694,154.694,0,0,0,1.632,22.153,36.452,36.452,0,0,0-6.078-.526H53.906a36.453,36.453,0,0,0-6.078.526A154.694,154.694,0,0,0,49.46,82.331V39.61H45.014V82.331a150.423,150.423,0,0,1-1.845,23.258,36.5,36.5,0,0,0-7.158,3.067A14.676,14.676,0,0,0,31.4,99.617a15.7,15.7,0,0,0-9.55-4.17,22.694,22.694,0,0,1-3.508-12.091,76.575,76.575,0,0,1,2.179-18.112ZM120.6,116.481a12.811,12.811,0,0,1-.7,4.178,13.654,13.654,0,0,1-13,9.039H23.144a13.65,13.65,0,0,1-13-9.037,12.777,12.777,0,0,1-.7-4.181v-5.547A11.2,11.2,0,0,1,28.3,102.7a10.463,10.463,0,0,1,3.375,7.7v4.29a10.938,10.938,0,0,0,11.115,10.725h4.446v-4.29H42.791a6.563,6.563,0,0,1-6.669-6.435v-1.021a32.116,32.116,0,0,1,17.784-5.414h22.23a32.116,32.116,0,0,1,17.784,5.414v1.021a6.563,6.563,0,0,1-6.669,6.435H82.806v4.29h4.446a10.938,10.938,0,0,0,11.115-10.725v-4.29a10.457,10.457,0,0,1,3.377-7.7,11.2,11.2,0,0,1,18.853,8.239Z" transform="translate(1.473 -1)" fill="#59bcef"/>
  <path id="Path_386" data-name="Path 386" d="M68.8,9.091a6.479,6.479,0,0,1-6.473-6.473,1.618,1.618,0,0,0-3.236,0,6.479,6.479,0,0,1-6.473,6.473,1.618,1.618,0,0,0,0,3.236A6.479,6.479,0,0,1,59.091,18.8a1.618,1.618,0,0,0,3.236,0A6.479,6.479,0,0,1,68.8,12.327a1.618,1.618,0,0,0,0-3.236Zm-8.091,4.348a9.788,9.788,0,0,0-2.73-2.73,9.788,9.788,0,0,0,2.73-2.73,9.788,9.788,0,0,0,2.73,2.73A9.788,9.788,0,0,0,60.709,13.439Z" transform="translate(62.57 -1)" fill="#59bcef"/>
  <path id="Path_387" data-name="Path 387" d="M10.709,29.418A1.617,1.617,0,0,0,12.327,27.8,6.479,6.479,0,0,1,18.8,21.327a1.618,1.618,0,1,0,0-3.236,6.479,6.479,0,0,1-6.473-6.473,1.618,1.618,0,0,0-3.236,0,6.479,6.479,0,0,1-6.473,6.473,1.618,1.618,0,1,0,0,3.236A6.479,6.479,0,0,1,9.091,27.8,1.617,1.617,0,0,0,10.709,29.418Zm0-12.439a9.788,9.788,0,0,0,2.73,2.73,9.788,9.788,0,0,0-2.73,2.73,9.788,9.788,0,0,0-2.73-2.73A9.788,9.788,0,0,0,10.709,16.979Z" transform="translate(-1 4.563)" fill="#59bcef"/>
</svg>
