<svg xmlns="http://www.w3.org/2000/svg" width="133.027" height="133.028" viewBox="0 0 133.027 133.028">
  <g id="Group_229" data-name="Group 229" transform="translate(-8.273 -34.065)">
    <g id="Group_228" data-name="Group 228">
      <path id="Path_374" data-name="Path 374" d="M1,61v4.291H134.027V61H1Z" transform="translate(7.273 101.802)" fill="#59bcef"/>
      <path id="Path_375" data-name="Path 375" d="M51.582,49a8.582,8.582,0,1,0,8.582,8.582A8.591,8.591,0,0,0,51.582,49Zm0,12.874a4.291,4.291,0,1,1,4.291-4.291A4.3,4.3,0,0,1,51.582,61.874Z" transform="translate(55.388 88.054)" fill="#59bcef"/>
      <path id="Path_376" data-name="Path 376" d="M21.582,49a8.582,8.582,0,1,0,8.582,8.582A8.591,8.591,0,0,0,21.582,49Zm0,12.874a4.291,4.291,0,1,1,4.291-4.291A4.3,4.3,0,0,1,21.582,61.874Z" transform="translate(21.02 88.054)" fill="#59bcef"/>
      <path id="Path_377" data-name="Path 377" d="M123.851,55.205l-20.787-4.454L88.4,31.685A21.437,21.437,0,0,0,69.917,23.36L27.219,26.3a21.369,21.369,0,0,0-16.1,9.1l-4.3,6.143A32.034,32.034,0,0,0,1,60V82.72a6.445,6.445,0,0,0,6.437,6.437H18.313a17.15,17.15,0,0,0,34.034,0H82.683a17.15,17.15,0,0,0,34.034,0h10.874a6.445,6.445,0,0,0,6.437-6.437V67.791A12.938,12.938,0,0,0,123.851,55.205ZM5.291,65.556H9.582V71.1L5.291,75.4ZM35.33,99.885A12.874,12.874,0,1,1,48.2,87.012,12.887,12.887,0,0,1,35.33,99.885Zm64.368,0a12.874,12.874,0,1,1,12.874-12.874A12.887,12.887,0,0,1,99.7,99.885Zm27.893-15.019H116.714a17.15,17.15,0,0,0-34.034,0H52.346a17.15,17.15,0,0,0-34.034,0H7.437A2.148,2.148,0,0,1,5.291,82.72V80.575a2.14,2.14,0,0,0,1.517-.629l6.437-6.437a2.136,2.136,0,0,0,.629-1.517V63.41a2.145,2.145,0,0,0-2.146-2.146H5.291V60a27.746,27.746,0,0,1,5.042-16l4.3-6.143a17.093,17.093,0,0,1,12.88-7.28l42.7-2.944A17.075,17.075,0,0,1,85,34.3l15.146,19.69a2.149,2.149,0,0,0,1.251.79L122.952,59.4a8.6,8.6,0,0,1,5.551,4.01h-5.2a2.145,2.145,0,0,0-2.146,2.146v8.582a2.145,2.145,0,0,0,2.146,2.146h6.437V82.72a2.148,2.148,0,0,1-2.146,2.146Zm2.146-17.075v4.2h-4.291V67.7h4.283C129.728,67.731,129.736,67.761,129.736,67.791Z" transform="translate(7.273 58.625)" fill="#59bcef"/>
      <path id="Path_378" data-name="Path 378" d="M76.792,32.7a12.921,12.921,0,0,0-11.573-5.45L23.081,30.624a12.924,12.924,0,0,0-9.891,6.01L5.326,49.222A2.147,2.147,0,0,0,7.145,52.5H86.533a2.144,2.144,0,0,0,1.757-3.375ZM54.349,32.43V48.213H32.893V34.147ZM16.833,38.91A8.6,8.6,0,0,1,23.426,34.9L28.6,34.49V48.213H11.016Zm41.807,9.3V32.087l6.924-.554a8.606,8.606,0,0,1,7.716,3.63l9.134,13.05Z" transform="translate(11.855 63.094)" fill="#59bcef"/>
      <path id="Path_379" data-name="Path 379" d="M28,41h8.582v4.291H28Z" transform="translate(38.204 78.889)" fill="#59bcef"/>
      <path id="Path_380" data-name="Path 380" d="M16,41h8.582v4.291H16Z" transform="translate(24.457 78.889)" fill="#59bcef"/>
      <path id="Path_381" data-name="Path 381" d="M41.146,23.019A8.591,8.591,0,0,1,49.728,31.6a2.146,2.146,0,1,0,4.291,0A8.591,8.591,0,0,1,62.6,23.019a2.146,2.146,0,1,0,0-4.291,8.591,8.591,0,0,1-8.582-8.582,2.146,2.146,0,0,0-4.291,0,8.591,8.591,0,0,1-8.582,8.582,2.146,2.146,0,0,0,0,4.291Zm10.728-5.765a13.007,13.007,0,0,0,3.62,3.62,13.007,13.007,0,0,0-3.62,3.62,13.007,13.007,0,0,0-3.62-3.62A12.978,12.978,0,0,0,51.874,17.254Z" transform="translate(50.806 41.084)" fill="#59bcef"/>
      <path id="Path_382" data-name="Path 382" d="M53.146,16.019A8.591,8.591,0,0,1,61.728,24.6a2.146,2.146,0,0,0,4.291,0A8.591,8.591,0,0,1,74.6,16.019a2.146,2.146,0,0,0,0-4.291,8.591,8.591,0,0,1-8.582-8.582,2.146,2.146,0,0,0-4.291,0,8.591,8.591,0,0,1-8.582,8.582,2.146,2.146,0,1,0,0,4.291Zm10.728-5.765a12.978,12.978,0,0,0,3.62,3.62,12.978,12.978,0,0,0-3.62,3.62,12.978,12.978,0,0,0-3.62-3.62A12.978,12.978,0,0,0,63.874,10.254Z" transform="translate(64.553 33.065)" fill="#59bcef"/>
      <path id="Path_383" data-name="Path 383" d="M3.146,23.019A8.591,8.591,0,0,1,11.728,31.6a2.146,2.146,0,1,0,4.291,0A8.591,8.591,0,0,1,24.6,23.019a2.146,2.146,0,1,0,0-4.291,8.591,8.591,0,0,1-8.582-8.582,2.146,2.146,0,1,0-4.291,0,8.591,8.591,0,0,1-8.582,8.582,2.146,2.146,0,1,0,0,4.291Zm10.728-5.765a12.978,12.978,0,0,0,3.62,3.62,12.978,12.978,0,0,0-3.62,3.62,12.978,12.978,0,0,0-3.62-3.62A12.978,12.978,0,0,0,13.874,17.254Z" transform="translate(7.273 41.084)" fill="#59bcef"/>
      <path id="Path_384" data-name="Path 384" d="M15.146,16.019A8.591,8.591,0,0,1,23.728,24.6a2.146,2.146,0,1,0,4.291,0A8.591,8.591,0,0,1,36.6,16.019a2.146,2.146,0,0,0,0-4.291,8.591,8.591,0,0,1-8.582-8.582,2.146,2.146,0,1,0-4.291,0,8.591,8.591,0,0,1-8.582,8.582,2.146,2.146,0,0,0,0,4.291Zm10.728-5.765a12.978,12.978,0,0,0,3.62,3.62,12.978,12.978,0,0,0-3.62,3.62,12.978,12.978,0,0,0-3.62-3.62A12.978,12.978,0,0,0,25.874,10.254Z" transform="translate(21.02 33.065)" fill="#59bcef"/>
    </g>
  </g>
</svg>
