<svg id="Logo" xmlns="http://www.w3.org/2000/svg" width="175.889" height="143.977" viewBox="0 0 175.889 143.977">
  <g id="Group_211" data-name="Group 211" transform="translate(-1.512 23.185)">
    <path id="Path_467" data-name="Path 467" d="M60.984,0,52.227-32.193,39.249-2.394a6.3,6.3,0,0,1-1.67,2.236A3.74,3.74,0,0,1,35.154.63q-2.835,0-4.1-3.024l-12.915-29.8L9.387,0H1.512L13.293-43.092a3.8,3.8,0,0,1,3.969-3.276,4.361,4.361,0,0,1,2.363.693,4.306,4.306,0,0,1,1.67,2.016L35.406-11.277,49.518-43.659a3.929,3.929,0,0,1,3.843-2.709q2.9,0,3.843,3.276L68.922,0ZM88.011-12.726v-7.749h18.4a8.831,8.831,0,0,0,6.584-2.394,8.581,8.581,0,0,0,2.363-6.3,8.449,8.449,0,0,0-2.363-6.3,8.969,8.969,0,0,0-6.584-2.331H82.152V0H74.214V-45.8h32.193a20.147,20.147,0,0,1,7.088,1.165,14.72,14.72,0,0,1,5.26,3.276,13.993,13.993,0,0,1,3.276,5.134,19.266,19.266,0,0,1,1.134,6.8,19.336,19.336,0,0,1-1.134,6.773,14.872,14.872,0,0,1-3.276,5.26,14.761,14.761,0,0,1-5.26,3.434,19.217,19.217,0,0,1-7.088,1.228ZM165.69.189V-19.719H142.632v-7.119H165.69V-45.8h8V.189Zm-36.855,0V-45.8h8V.189Z" transform="translate(0 96.928)" fill="#fff"/>
    <path id="Path_468" data-name="Path 468" d="M5.436-12.51a7.619,7.619,0,0,1,3.5.765,5.473,5.473,0,0,1,2.322,2.2,6.605,6.605,0,0,1,.819,3.339A6.457,6.457,0,0,1,11.259-2.9,5.409,5.409,0,0,1,8.937-.747,7.773,7.773,0,0,1,5.436,0H1.35V-12.51Zm0,10.836A4.515,4.515,0,0,0,8.8-2.862,4.568,4.568,0,0,0,9.972-6.21a4.723,4.723,0,0,0-1.17-3.4,4.438,4.438,0,0,0-3.366-1.224H3.4v9.162Zm10.53-9.18v3.672h4.32v1.674h-4.32v3.834h4.86V0H13.914V-12.528h6.912v1.674ZM31.23-12.51v1.674H27.9V0H25.848V-10.836H22.5V-12.51Zm9.414,9.954H35.406L34.506,0H32.364l4.482-12.528h2.376L43.7,0h-2.16ZM40.068-4.23l-2.034-5.814L35.982-4.23ZM47.5-12.51V0H45.45V-12.51ZM52.056-1.656h4.23V0H50V-12.51h2.052ZM59.85-12.51V0H57.8V-12.51ZM72.63,0H70.578L64.4-9.342V0H62.352V-12.528H64.4L70.578-3.2v-9.324H72.63ZM84.186-8.91a3.307,3.307,0,0,0-1.35-1.413,4.066,4.066,0,0,0-2-.477,4.367,4.367,0,0,0-2.214.558A3.91,3.91,0,0,0,77.1-8.658a4.96,4.96,0,0,0-.549,2.376A5.014,5.014,0,0,0,77.1-3.9,3.9,3.9,0,0,0,78.624-2.3a4.367,4.367,0,0,0,2.214.558,3.917,3.917,0,0,0,2.718-.936A4.068,4.068,0,0,0,84.834-5.22h-4.7V-6.858H87.03v1.6a6.158,6.158,0,0,1-1.035,2.682A6.157,6.157,0,0,1,83.817-.621a6.135,6.135,0,0,1-2.979.729,6.465,6.465,0,0,1-3.222-.819A6.106,6.106,0,0,1,75.3-2.988a6.389,6.389,0,0,1-.855-3.294A6.389,6.389,0,0,1,75.3-9.576a6.088,6.088,0,0,1,2.322-2.277,6.48,6.48,0,0,1,3.213-.819,6.527,6.527,0,0,1,3.555.981A5.586,5.586,0,0,1,86.652-8.91ZM97.452.126a5.6,5.6,0,0,1-2.268-.441A3.722,3.722,0,0,1,93.6-1.566a3.177,3.177,0,0,1-.576-1.89h2.2a1.983,1.983,0,0,0,.639,1.332,2.265,2.265,0,0,0,1.593.522,2.453,2.453,0,0,0,1.656-.513A1.668,1.668,0,0,0,99.7-3.438a1.445,1.445,0,0,0-.369-1.026,2.468,2.468,0,0,0-.918-.612,13.843,13.843,0,0,0-1.521-.468A14.251,14.251,0,0,1,94.905-6.2,3.287,3.287,0,0,1,93.6-7.236a2.991,2.991,0,0,1-.54-1.872A3.327,3.327,0,0,1,93.6-11a3.449,3.449,0,0,1,1.512-1.242,5.494,5.494,0,0,1,2.25-.432,4.689,4.689,0,0,1,2.979.909,3.354,3.354,0,0,1,1.287,2.493H99.36a1.643,1.643,0,0,0-.648-1.17,2.4,2.4,0,0,0-1.566-.486,2.222,2.222,0,0,0-1.44.45,1.568,1.568,0,0,0-.558,1.3,1.315,1.315,0,0,0,.351.945,2.479,2.479,0,0,0,.891.585,13.832,13.832,0,0,0,1.476.468,15.409,15.409,0,0,1,2.025.684,3.371,3.371,0,0,1,1.332,1.053,3.027,3.027,0,0,1,.549,1.9,3.414,3.414,0,0,1-.513,1.8A3.7,3.7,0,0,1,99.765-.387,4.926,4.926,0,0,1,97.452.126Zm8.6-10.98v3.672h4.32v1.674h-4.32v3.834h4.86V0H104V-12.528h6.912v1.674ZM119.736,0l-2.88-5H115.29V0h-2.052V-12.51h4.32a5.372,5.372,0,0,1,2.439.5,3.5,3.5,0,0,1,1.494,1.35,3.673,3.673,0,0,1,.5,1.89,3.745,3.745,0,0,1-.711,2.223,3.609,3.609,0,0,1-2.187,1.359L122.184,0ZM115.29-6.642h2.268a2.379,2.379,0,0,0,1.737-.576,2.074,2.074,0,0,0,.585-1.548,2,2,0,0,0-.576-1.521,2.447,2.447,0,0,0-1.746-.549H115.29ZM135.2-12.51,130.5,0h-2.376l-4.716-12.51h2.2l3.708,10.4,3.726-10.4Zm3.564,0V0H136.71V-12.51Zm1.818,6.228a6.389,6.389,0,0,1,.855-3.294,6.088,6.088,0,0,1,2.322-2.277,6.48,6.48,0,0,1,3.213-.819,6.527,6.527,0,0,1,3.555.981,5.586,5.586,0,0,1,2.259,2.781h-2.466a3.306,3.306,0,0,0-1.35-1.476,4.006,4.006,0,0,0-2-.486,4.366,4.366,0,0,0-2.214.558,3.884,3.884,0,0,0-1.521,1.6,5.147,5.147,0,0,0-.549,2.43,5.147,5.147,0,0,0,.549,2.43,3.944,3.944,0,0,0,1.521,1.611,4.312,4.312,0,0,0,2.214.567,4.006,4.006,0,0,0,2-.486,3.306,3.306,0,0,0,1.35-1.476h2.466a5.539,5.539,0,0,1-2.259,2.772,6.573,6.573,0,0,1-3.555.972,6.465,6.465,0,0,1-3.222-.819,6.106,6.106,0,0,1-2.313-2.277A6.389,6.389,0,0,1,140.58-6.282Zm16.452-4.572v3.672h4.32v1.674h-4.32v3.834h4.86V0H154.98V-12.528h6.912v1.674Zm11.3,10.98a5.6,5.6,0,0,1-2.268-.441,3.722,3.722,0,0,1-1.584-1.251,3.177,3.177,0,0,1-.576-1.89h2.2a1.982,1.982,0,0,0,.639,1.332,2.265,2.265,0,0,0,1.593.522,2.453,2.453,0,0,0,1.656-.513,1.668,1.668,0,0,0,.594-1.323,1.445,1.445,0,0,0-.369-1.026,2.468,2.468,0,0,0-.918-.612,13.844,13.844,0,0,0-1.521-.468,14.251,14.251,0,0,1-1.989-.657,3.287,3.287,0,0,1-1.305-1.035,2.991,2.991,0,0,1-.54-1.872,3.327,3.327,0,0,1,.54-1.89A3.449,3.449,0,0,1,166-12.24a5.494,5.494,0,0,1,2.25-.432,4.689,4.689,0,0,1,2.979.909,3.354,3.354,0,0,1,1.287,2.493h-2.268a1.643,1.643,0,0,0-.648-1.17,2.4,2.4,0,0,0-1.566-.486,2.222,2.222,0,0,0-1.44.45,1.568,1.568,0,0,0-.558,1.3,1.315,1.315,0,0,0,.351.945,2.478,2.478,0,0,0,.891.585,13.832,13.832,0,0,0,1.476.468,15.408,15.408,0,0,1,2.025.684,3.371,3.371,0,0,1,1.332,1.053,3.027,3.027,0,0,1,.549,1.9,3.414,3.414,0,0,1-.513,1.8,3.7,3.7,0,0,1-1.494,1.359A4.926,4.926,0,0,1,168.336.126Z" transform="translate(1.54 120.665)" fill="#88c6e8"/>
    <g id="Group_210" data-name="Group 210" transform="translate(4.724)">
      <path id="Path_423" data-name="Path 423" d="M74.42,39.465c2.8.722,2.655,1.854,2.655,1.854l2.1,10.157s.14-8.163.26-9.538,1.289-6.212,1.289-6.212L45.9,33.13S71.622,38.743,74.42,39.465Z" transform="translate(-19.185 -4.314)" fill="#fff"/>
      <path id="Path_424" data-name="Path 424" d="M76.893,34.425c-2.464-2.61-7.456-3.83-12.13.071s-4.3,17.213-4.3,17.213A22.666,22.666,0,0,1,64.635,40.2s4.17-5.71,9.478-3.839,8.97,8.825,8.97,8.825C82.578,42.106,79.355,37.034,76.893,34.425Z" transform="translate(7.771 -6.408)" fill="#fff"/>
      <path id="Path_425" data-name="Path 425" d="M77.865,35.332c.582.351.924.565.924.565A3.239,3.239,0,0,0,77.865,35.332Z" transform="translate(40.013 -0.236)" fill="#fff"/>
      <path id="Path_426" data-name="Path 426" d="M74.245,34.889a19.532,19.532,0,0,1,4.013.936s11.218,3.6,14.618,5.231c-2.473-1.5-9.29-5.539-12.692-6.691a55.13,55.13,0,0,0-9.064-2.059s-1.358-.408-1.358.844,1.674,3.5,1.674,3.5,4.452,5.091,5.81,6.027a2.328,2.328,0,0,0,1.3.411c.756,0,13.645.485,13.645.485L79.11,40.842a3.223,3.223,0,0,1-1.42-.562c-.539-.451-4.2-4.307-4.2-4.307S73.172,34.926,74.245,34.889Z" transform="translate(25.003 -5.96)" fill="#fff"/>
      <path id="Path_427" data-name="Path 427" d="M209.214,60.014a16.9,16.9,0,0,0-1.669-5.779c-3.14-4.986-12.413-9.019-16.2-10-3.291-.856-15.465-1.951-15.465-1.951a178.513,178.513,0,0,0-38.008-4.669A205.636,205.636,0,0,0,110,39.091c-2.678.208-13.927,1.372-13.927,1.372L88.015,26.116s2.25-.225,2.653-.282,8.269-.562,8.269-.562,10.47-.054,12.3-.083a42.241,42.241,0,0,1,4.786.365l2.889.87,11.018,4.07L125.47,28s-6.657-2.946-8.6-3.676a39.814,39.814,0,0,0-6.908-1.181l-8.919-.111s-7.581.288-12.059.308c-4.715-.2-9.05,1.178-12.2,1.517S65.1,30.3,65.1,30.3L50.749,40.77s-1.66.029-2.772.168-3.816.816-3.816.816a8.494,8.494,0,0,1-1.42-1.178c-1.041-.984.9-1.406.9-1.406s7.247-.927,7.108-1.067-7.724.451-7.724.451a12.921,12.921,0,0,0-3.388.927c-.782.533-.143,2.019-.143,2.019l1.825,2.219c-6.041,3.762-4.643,16.919-4.643,16.919s1.563-14.56,7.533-13.551,8.152,7.35,8.152,7.35c.662-4.894-3.129-8.36-3.508-8.922a6.138,6.138,0,0,0-1.8-1.235l1.894-.9A39.924,39.924,0,0,1,57.1,42.71l27.86.337s-15.827-2.133-19.426-2.359S62.4,38.1,62.4,38.1s1.232-2.807,5.308-6.178,12.7-4.829,12.7-4.829c6.349-.562,4.834,1.686,4.834,1.686l3.962,9.1s2.481,7.19,4.2,7.638a52.846,52.846,0,0,0,7.51.451l16.643-.451s6.349.337,12.13.787c5.684-.114,25.017,5.616,25.017,5.616-2.461-2.133-15.445-6.965-20.564-7.749-3.893-1.01-16.469-1.389-22.575-1.515l5.137-.531c28.319-2.376,37.472-1.346,52.033,1.187S199.06,57.245,199.06,57.245c-2.2-3.642-14.76-11.637-14.76-11.637,13.491.87,19.17,6.175,19.17,6.175a31.454,31.454,0,0,0-.134,4.829,7.426,7.426,0,0,0,1.4,2.849l-.134-6.175c2.807,1.426,2.67,3.388,2.67,3.388l.137,2.63-2.738,1.346Z" transform="translate(-36.536 -23.027)" fill="#fff"/>
    </g>
  </g>
  <path id="Path_403" data-name="Path 403" d="M67.142,18.426s3.44-.776,3.7-3.528c0,0,1.092,3.44,3.414,3.585a4.482,4.482,0,0,0-3.528,3.5A4.422,4.422,0,0,0,67.142,18.426Z" transform="translate(23.364 -14.898)" fill="#88c5e6"/>
  <path id="Path_404" data-name="Path 404" d="M59.6,20.712s4.786-1.078,5.145-4.906c0,0,1.515,4.786,4.746,4.986a6.225,6.225,0,0,0-4.906,4.866A6.145,6.145,0,0,0,59.6,20.712Z" transform="translate(9.402 -13.216)" fill="#88c5e6"/>
  <path id="Path_417" data-name="Path 417" d="M71.318,22.555s3.443-.776,3.7-3.528c0,0,1.09,3.44,3.414,3.585a4.474,4.474,0,0,0-3.528,3.5A4.425,4.425,0,0,0,71.318,22.555Z" transform="translate(31.099 -7.25)" fill="#88c5e6"/>
</svg>
