<svg id="Logo" xmlns="http://www.w3.org/2000/svg" width="178" height="149.851" viewBox="0 0 178 149.851">
<defs>
  <style type="text/css">
    @font-face {
      font-family: Good GoodTimesRg;
      src: url('../fonts/good_times_rg.ttf');
    }
  </style>
</defs>
  <g id="Group_211" data-name="Group 211" transform="translate(0 23.185)">
    <text id="MPH" transform="translate(0 96.928)" fill="#fff" font-size="63" font-family="GoodTimesRg-Regular, Good Times"><tspan x="0" y="0">MPH</tspan></text>
    <text id="DETAILING_SERVICES" data-name="DETAILING SERVICES" transform="translate(1.54 120.665)" fill="#88c6e8" font-size="18" font-family="Poppins-Medium, Poppins" font-weight="500" letter-spacing="-0.011em"><tspan x="0" y="0">DETAILING SERVICES</tspan></text>
    <g id="Group_210" data-name="Group 210" transform="translate(4.724)">
      <path id="Path_423" data-name="Path 423" d="M74.42,39.465c2.8.722,2.655,1.854,2.655,1.854l2.1,10.157s.14-8.163.26-9.538,1.289-6.212,1.289-6.212L45.9,33.13S71.622,38.743,74.42,39.465Z" transform="translate(-19.185 -4.314)" fill="#fff"/>
      <path id="Path_424" data-name="Path 424" d="M76.893,34.425c-2.464-2.61-7.456-3.83-12.13.071s-4.3,17.213-4.3,17.213A22.666,22.666,0,0,1,64.635,40.2s4.17-5.71,9.478-3.839,8.97,8.825,8.97,8.825C82.578,42.106,79.355,37.034,76.893,34.425Z" transform="translate(7.771 -6.408)" fill="#fff"/>
      <path id="Path_425" data-name="Path 425" d="M77.865,35.332c.582.351.924.565.924.565A3.239,3.239,0,0,0,77.865,35.332Z" transform="translate(40.013 -0.236)" fill="#fff"/>
      <path id="Path_426" data-name="Path 426" d="M74.245,34.889a19.532,19.532,0,0,1,4.013.936s11.218,3.6,14.618,5.231c-2.473-1.5-9.29-5.539-12.692-6.691a55.13,55.13,0,0,0-9.064-2.059s-1.358-.408-1.358.844,1.674,3.5,1.674,3.5,4.452,5.091,5.81,6.027a2.328,2.328,0,0,0,1.3.411c.756,0,13.645.485,13.645.485L79.11,40.842a3.223,3.223,0,0,1-1.42-.562c-.539-.451-4.2-4.307-4.2-4.307S73.172,34.926,74.245,34.889Z" transform="translate(25.003 -5.96)" fill="#fff"/>
      <path id="Path_427" data-name="Path 427" d="M209.214,60.014a16.9,16.9,0,0,0-1.669-5.779c-3.14-4.986-12.413-9.019-16.2-10-3.291-.856-15.465-1.951-15.465-1.951a178.513,178.513,0,0,0-38.008-4.669A205.636,205.636,0,0,0,110,39.091c-2.678.208-13.927,1.372-13.927,1.372L88.015,26.116s2.25-.225,2.653-.282,8.269-.562,8.269-.562,10.47-.054,12.3-.083a42.241,42.241,0,0,1,4.786.365l2.889.87,11.018,4.07L125.47,28s-6.657-2.946-8.6-3.676a39.814,39.814,0,0,0-6.908-1.181l-8.919-.111s-7.581.288-12.059.308c-4.715-.2-9.05,1.178-12.2,1.517S65.1,30.3,65.1,30.3L50.749,40.77s-1.66.029-2.772.168-3.816.816-3.816.816a8.494,8.494,0,0,1-1.42-1.178c-1.041-.984.9-1.406.9-1.406s7.247-.927,7.108-1.067-7.724.451-7.724.451a12.921,12.921,0,0,0-3.388.927c-.782.533-.143,2.019-.143,2.019l1.825,2.219c-6.041,3.762-4.643,16.919-4.643,16.919s1.563-14.56,7.533-13.551,8.152,7.35,8.152,7.35c.662-4.894-3.129-8.36-3.508-8.922a6.138,6.138,0,0,0-1.8-1.235l1.894-.9A39.924,39.924,0,0,1,57.1,42.71l27.86.337s-15.827-2.133-19.426-2.359S62.4,38.1,62.4,38.1s1.232-2.807,5.308-6.178,12.7-4.829,12.7-4.829c6.349-.562,4.834,1.686,4.834,1.686l3.962,9.1s2.481,7.19,4.2,7.638a52.846,52.846,0,0,0,7.51.451l16.643-.451s6.349.337,12.13.787c5.684-.114,25.017,5.616,25.017,5.616-2.461-2.133-15.445-6.965-20.564-7.749-3.893-1.01-16.469-1.389-22.575-1.515l5.137-.531c28.319-2.376,37.472-1.346,52.033,1.187S199.06,57.245,199.06,57.245c-2.2-3.642-14.76-11.637-14.76-11.637,13.491.87,19.17,6.175,19.17,6.175a31.454,31.454,0,0,0-.134,4.829,7.426,7.426,0,0,0,1.4,2.849l-.134-6.175c2.807,1.426,2.67,3.388,2.67,3.388l.137,2.63-2.738,1.346Z" transform="translate(-36.536 -23.027)" fill="#fff"/>
    </g>
  </g>
  <path id="Path_403" data-name="Path 403" d="M67.142,18.426s3.44-.776,3.7-3.528c0,0,1.092,3.44,3.414,3.585a4.482,4.482,0,0,0-3.528,3.5A4.422,4.422,0,0,0,67.142,18.426Z" transform="translate(24.876 -14.898)" fill="#88c5e6"/>
  <path id="Path_404" data-name="Path 404" d="M59.6,20.712s4.786-1.078,5.145-4.906c0,0,1.515,4.786,4.746,4.986a6.225,6.225,0,0,0-4.906,4.866A6.145,6.145,0,0,0,59.6,20.712Z" transform="translate(10.914 -13.216)" fill="#88c5e6"/>
  <path id="Path_417" data-name="Path 417" d="M71.318,22.555s3.443-.776,3.7-3.528c0,0,1.09,3.44,3.414,3.585a4.474,4.474,0,0,0-3.528,3.5A4.425,4.425,0,0,0,71.318,22.555Z" transform="translate(32.611 -7.25)" fill="#88c5e6"/>
</svg>
